<?xml version="1.0" standalone="no"?>
<!DOCTYPE svg PUBLIC "-//W3C//DTD SVG 20010904//EN"
 "http://www.w3.org/TR/2001/REC-SVG-20010904/DTD/svg10.dtd">
<svg version="1.0" xmlns="http://www.w3.org/2000/svg"
 width="544.000000pt" height="544.000000pt" viewBox="0 0 544.000000 544.000000"
 preserveAspectRatio="xMidYMid meet">
<metadata>
Created by potrace 1.11, written by Peter Selinger 2001-2013
</metadata>
<g transform="translate(0.000000,544.000000) scale(0.100000,-0.100000)"
fill="#000000" stroke="none">
<path d="M180 4685 c0 -2 89 -81 198 -176 108 -94 211 -183 227 -198 17 -14
84 -73 150 -130 170 -148 229 -198 322 -280 l82 -72 -92 -46 c-494 -245 -823
-712 -883 -1251 -14 -126 -9 -343 11 -442 3 -14 8 -41 11 -60 6 -39 60 -224
74 -255 116 -261 202 -390 374 -560 186 -184 415 -318 664 -389 216 -62 253
-64 1017 -65 l690 -1 -30 28 c-17 15 -163 142 -325 282 -162 140 -341 296
-399 347 l-106 92 -243 0 c-133 0 -270 5 -303 11 -170 31 -314 106 -439 230
-129 127 -192 235 -235 405 -30 116 -29 299 3 415 81 292 301 512 604 601 71
21 88 22 758 25 377 1 692 3 700 4 11 0 8 7 -10 21 -14 12 -43 38 -66 58 -22
20 -69 61 -105 91 -35 30 -115 100 -179 155 -212 185 -485 421 -514 446 -16
13 -41 35 -56 49 -14 14 -53 47 -86 75 -32 27 -61 52 -64 55 -3 3 -108 95
-235 205 -126 109 -232 201 -235 205 -3 3 -37 33 -77 66 l-71 62 -566 0 c-311
0 -566 -2 -566 -3z"/>
<path d="M2431 4666 c13 -12 58 -51 99 -86 41 -36 89 -77 105 -91 17 -15 73
-64 125 -109 52 -45 111 -97 130 -114 19 -17 112 -97 205 -177 l170 -146 242
-1 c134 0 266 -5 295 -11 29 -6 62 -13 73 -15 11 -2 52 -16 90 -30 286 -108
492 -368 540 -681 7 -46 8 -196 1 -216 -3 -8 -8 -31 -11 -53 -13 -93 -68 -222
-138 -326 -40 -59 -150 -168 -210 -209 -104 -71 -258 -130 -378 -145 -19 -3
-333 -5 -699 -6 l-665 -1 25 -20 c14 -12 43 -37 65 -57 22 -21 70 -62 105 -92
36 -30 67 -57 70 -60 3 -3 52 -46 110 -95 58 -50 107 -92 110 -95 3 -3 57 -51
120 -105 63 -55 120 -104 126 -110 6 -5 37 -32 69 -60 32 -27 95 -82 139 -121
45 -38 185 -160 311 -269 127 -110 235 -204 241 -210 25 -23 137 -120 181
-156 l48 -39 568 0 568 0 -233 203 c-128 111 -351 305 -495 429 l-262 227 102
51 c406 205 697 553 822 985 27 93 29 102 47 210 17 102 14 381 -5 495 -42
248 -154 504 -310 710 -50 65 -203 221 -267 271 -93 73 -188 133 -295 184 -95
46 -233 99 -284 110 -26 6 -163 34 -201 41 -19 4 -359 8 -754 10 l-719 2 24
-22z"/>
</g>
</svg>
